<?xml version="1.0" standalone="no"?><!DOCTYPE svg PUBLIC "-//W3C//DTD SVG 1.1//EN" "http://www.w3.org/Graphics/SVG/1.1/DTD/svg11.dtd"><svg t="1664783992882" class="icon" viewBox="0 0 1024 1024" version="1.1" xmlns="http://www.w3.org/2000/svg" p-id="2753" xmlns:xlink="http://www.w3.org/1999/xlink" width="64" height="64"><path d="M802.7 66H216.9C146.4 66 89 129.5 89 207.7v496.9c0 78.1 57.4 141.7 127.9 141.7h118.9L451.7 955c3.5 3.2 8 5 12.6 5 1.5 0 3.1-0.2 4.6-0.6 6.1-1.6 11-6.2 13-12.2l32.9-101h287.9c70.5 0 127.9-63.6 127.9-141.7V207.7c0-78.2-57.4-141.7-127.9-141.7z m91 638.6c0 57.8-40.8 104.8-91 104.8H501.4c-8 0-15.1 5.1-17.6 12.7l-28 86.1-100-93.9c-3.4-3.2-7.9-5-12.6-5H216.9c-50.2 0-91-47-91-104.8V207.7c0-57.8 40.8-104.8 91-104.8h585.8c50.2 0 91 47 91 104.8v496.9z" p-id="2754"></path><path d="M756.5 520.4H255.7c-10.2 0-18.5 8.3-18.5 18.5s8.3 18.5 18.5 18.5h500.7c10.2 0 18.5-8.3 18.5-18.5 0-10.3-8.2-18.5-18.4-18.5zM756.5 335.4H255.7c-10.2 0-18.5 8.3-18.5 18.5s8.3 18.5 18.5 18.5h500.7c10.2 0 18.5-8.3 18.5-18.5s-8.2-18.5-18.4-18.5z" p-id="2755"></path></svg>